# xmcd
#
# Track frame offsets:
#	150
#	12162
#	28387
#	43015
#	57472
#	73930
#	83602
#	101620
#	119445
#	132977
#	147020
#	165692
#
# Disc length: 2375 seconds
#
# Revision: 1
# Processed by: cddbd v1.5.2PL0 Copyright (c) Steve Scherf et al.
# Submitted via: audiograbber 1.83.01
#
DISCID=a909450c
DTITLE=Teddy Edelmann - Jul-det er også mig
DYEAR=1990
DGENRE=Christmas
TTITLE0=December (1990)
TTITLE1=December i nat (1990)
TTITLE2=Hej daddy (1990)
TTITLE3=Nu er julen over os igen (1990)
TTITLE4=Jul alene (1990)
TTITLE5=Julefrokosten (1990)
TTITLE6=Min pige elsker julesne (1990)
TTITLE7=Vi holder julefest på grænsen (1990)
TTITLE8=Grå jul (1990)
TTITLE9=Jul på 18 hjul (1990)
TTITLE10=Hvid jul (1990)
TTITLE11=The x-mas song (1990)
EXTD=
EXTT0=
EXTT1=
EXTT2=
EXTT3=
EXTT4=
EXTT5=
EXTT6=
EXTT7=
EXTT8=
EXTT9=
EXTT10=
EXTT11=
PLAYORDER=
